HIERARCHY
ROOT Hips
{
	OFFSET -3.958830 18.904000 13.208200
	CHANNELS 6 Xposition Yposition Zposition Zrotation Yrotation Xrotation 
	JOINT LHipJoint
	{
		OFFSET 0.000000 0.000000 0.000000
		CHANNELS 3 Zrotation Yrotation Xrotation
		JOINT LeftUpLeg
		{
			OFFSET 1.800000 -1.400000 0.085000
			CHANNELS 3 Zrotation Yrotation Xrotation
			JOINT LeftLeg
			{
				OFFSET 2.215000 -6.000000 0.000000
				CHANNELS 3 Zrotation Yrotation Xrotation
				JOINT LeftFoot
				{
					OFFSET 2.500000 -6.900000 0.000000
					CHANNELS 3 Zrotation Yrotation Xrotation
					JOINT LeftToeBase
					{
						OFFSET 0.200000 -0.500000 1.950000
						CHANNELS 3 Zrotation Yrotation Xrotation
						End Site
						{
							OFFSET 0.000000 0.000000 0.000000
						}
					}
				}
			}
		}
	}
	JOINT RHipJoint
	{
		OFFSET 0.000000 0.000000 0.000000
		CHANNELS 3 Zrotation Yrotation Xrotation
		JOINT RightUpLeg
		{
			OFFSET -1.800000 -1.400000 0.085000
			CHANNELS 3 Zrotation Yrotation Xrotation
			JOINT RightLeg
			{
				OFFSET -2.215000 -6.000000 0.000000
				CHANNELS 3 Zrotation Yrotation Xrotation
				JOINT RightFoot
				{
					OFFSET -2.500000 -6.900000 0.000000
					CHANNELS 3 Zrotation Yrotation Xrotation
					JOINT RightToeBase
					{
						OFFSET -0.200000 -0.500000 1.950000
						CHANNELS 3 Zrotation Yrotation Xrotation
						End Site
						{
							OFFSET 0.000000 0.000000 0.000000
						}
					}
				}
			}
		}
	}
	JOINT LowerBack
	{
		OFFSET 0.000000 0.000000 0.000000
		CHANNELS 3 Zrotation Yrotation Xrotation
		JOINT Spine
		{
			OFFSET -0.087000 1.940000 -0.288900
			CHANNELS 3 Zrotation Yrotation Xrotation
			JOINT Spine1
			{
				OFFSET 0.000000 1.950000 0.060000
				CHANNELS 3 Zrotation Yrotation Xrotation
				JOINT Neck
				{
					OFFSET 0.000000 0.000000 0.000000
					CHANNELS 3 Zrotation Yrotation Xrotation
					JOINT Neck1
					{
						OFFSET 0.000000 1.600000 0.340000
						CHANNELS 3 Zrotation Yrotation Xrotation
						JOINT Head
						{
							OFFSET 0.000000 1.667000 -0.240000
							CHANNELS 3 Zrotation Yrotation Xrotation
							End Site
							{
								OFFSET 0.000000 0.000000 0.000000
							}
						}
					}
				}
				JOINT LeftShoulder
				{
					OFFSET 0.000000 0.000000 0.000000
					CHANNELS 3 Zrotation Yrotation Xrotation
					JOINT LeftArm
					{
						OFFSET 2.700000 1.550000 -0.730000
						CHANNELS 3 Zrotation Yrotation Xrotation
						JOINT LeftForeArm
						{
							OFFSET 5.450000 0.000000 0.000000
							CHANNELS 3 Zrotation Yrotation Xrotation
							JOINT LeftHand
							{
								OFFSET 3.450000 0.000000 0.000000
								CHANNELS 3 Zrotation Yrotation Xrotation
								JOINT LeftHandIndex1
								{
									OFFSET 0.750000 0.000000 0.000000
									CHANNELS 3 Zrotation Yrotation Xrotation
									End Site
									{
										OFFSET 0.000000 0.000000 0.000000
									}
								}
							}
						}
					}
				}
				JOINT RightShoulder
				{
					OFFSET 0.000000 0.000000 0.000000
					CHANNELS 3 Zrotation Yrotation Xrotation
					JOINT RightArm
					{
						OFFSET -2.700000 1.550000 -0.730000
						CHANNELS 3 Zrotation Yrotation Xrotation
						JOINT RightForeArm
						{
							OFFSET -5.450000 0.000000 0.000000
							CHANNELS 3 Zrotation Yrotation Xrotation
							JOINT RightHand
							{
								OFFSET -3.450000 0.000000 0.000000
								CHANNELS 3 Zrotation Yrotation Xrotation
								JOINT RightHandIndex1
								{
									OFFSET -0.750000 0.000000 0.000000
									CHANNELS 3 Zrotation Yrotation Xrotation
									End Site
									{
										OFFSET 0.000000 0.000000 0.000000
									}
								}
							}
						}
					}
				}
			}
		}
	}
}
MOTION
Frames: 12
Frame Time: 0.016667
-0.522420 17.649670 -0.036780 -12.783551 -52.346765 1.909443 -15.869091 12.884422 4.565837 35.521209 -0.226212 -22.993581 -11.076288 11.502655 23.066795 -0.091654 7.529631 1.482584 0.211310 0.232470 0.334600 17.833880 -9.406071 2.164318 -6.302069 3.814312 -16.576997 10.015360 -14.057362 45.203340 -1.362068 -7.473847 1.526239 -0.024070 -0.027550 0.416490 -1.664221 -3.989555 -8.574821 -4.722892 6.004119 22.895214 15.275781 3.375293 16.966869 -4.879501 2.971752 -15.768591 1.546566 5.759273 57.064630 -11.515060 18.232950 -22.217740 7.614511 -26.822146 5.185920 -4.237518 -23.924425 -4.955811 25.059174 -22.182385 -5.907391 -3.689223 2.833584 0.736220 -0.033840 0.560440 0.014700 2.783053 25.822516 11.937235 62.650846 17.097378 -14.422742 19.174945 57.532751 1.085377 2.133948 -1.396414 -0.058200 0.153780 0.066260 -0.136990 
-0.576750 17.684560 -0.089910 -12.980113 -53.529235 1.913060 -15.798363 13.179908 4.207799 34.233499 0.206092 -21.466679 -8.408808 10.508871 21.992596 -0.111068 7.025593 1.675123 0.180430 0.191320 0.298000 17.840944 -9.525053 2.281155 -5.650170 4.177696 -15.947888 10.116318 -13.541901 44.323835 -1.319598 -7.293539 1.595258 -0.061310 -0.011270 0.418550 -1.669234 -4.036122 -8.445063 -5.593364 5.856307 21.733848 14.395121 3.200326 16.663085 -4.577566 1.522759 -16.279295 -1.709086 7.622302 56.727734 -11.324870 18.115600 -21.441460 7.353402 -26.314443 6.031399 -3.821271 -22.451773 -3.902845 23.141374 -18.852419 -4.715409 -3.733656 2.819807 0.725040 -0.038540 0.545480 0.012100 2.655847 26.182640 11.872956 61.534048 16.813263 -13.165532 10.499690 50.602071 -1.880757 2.135202 -1.286199 -0.046740 0.146110 0.087820 -0.119720 
-0.637420 17.715830 -0.131630 -13.463647 -54.451699 2.109757 -15.706783 13.432342 3.886314 33.129391 0.600546 -19.909875 -5.873825 9.529813 20.805617 -0.128412 6.571924 1.856637 0.155050 0.154490 0.250660 17.866093 -9.684037 2.387246 -5.045879 4.315494 -14.864681 10.430158 -13.128088 43.042700 -1.272139 -7.122534 1.662786 -0.088930 0.023130 0.434890 -1.792442 -3.992587 -8.308615 -5.488390 5.265720 20.616885 12.630420 2.944307 16.456421 -4.225651 -0.208681 -16.601372 -5.546172 9.921584 55.209285 -10.997390 18.014630 -20.457560 7.475542 -25.565459 6.750453 -3.041540 -21.088620 -2.584109 20.361528 -15.723711 -3.483711 -3.789007 2.809294 0.702800 -0.025480 0.517800 0.016500 1.969356 26.444667 11.674423 59.805001 17.087287 -10.640804 6.171398 43.386952 -2.423245 2.159278 -1.214420 -0.033730 0.133050 0.114460 -0.097040 
-0.713530 17.745630 -0.160970 -13.289476 -55.386450 2.326922 -15.607431 13.609884 3.584847 31.714210 0.870075 -18.449413 -3.932530 8.665351 19.359095 -0.176906 6.160120 2.037037 0.090970 0.078010 0.181000 17.899698 -9.875816 2.487671 -4.962605 4.419328 -14.295766 10.854793 -12.752007 41.635061 -1.192440 -6.942560 1.733318 -0.118060 0.087170 0.418810 -1.970857 -3.819346 -8.128252 -5.486385 4.550768 18.535074 10.029959 2.754854 15.953311 -3.585152 -1.779993 -16.824900 -8.941589 12.361256 53.833693 -10.237260 18.179450 -19.090110 7.935660 -24.389900 7.368488 -3.231994 -20.090819 -1.317072 18.735143 -13.136188 -2.754835 -3.860886 2.749278 0.689380 -0.000520 0.461190 0.004760 0.387378 26.225760 11.416639 58.145538 18.016517 -6.987874 5.087673 36.480633 -1.747167 2.203437 -1.124256 -0.066420 0.157740 0.171240 -0.086610 
-0.776350 17.789670 -0.188430 -13.043905 -56.746134 1.710127 -15.470270 13.857819 3.228308 30.087277 1.189501 -15.980516 -1.646808 7.721921 17.914055 -0.225326 5.761216 2.239358 0.039520 0.003110 0.138780 17.944303 -10.142488 2.591996 -5.243301 4.429031 -13.014782 11.339056 -12.394547 40.104340 -1.132462 -6.773394 1.806826 -0.144850 0.140110 0.392790 -2.209913 -3.611287 -7.923636 -4.738129 4.045396 17.452887 6.751741 3.054129 15.992685 -2.800132 -3.312276 -17.552180 -12.588258 14.683166 52.722850 -9.730110 18.243820 -18.266080 8.439255 -23.843465 8.302104 -2.825168 -18.067152 -0.553588 17.200592 -10.826383 -2.171463 -3.909499 2.661740 0.704700 0.007610 0.420840 -0.002770 -1.567760 26.680503 11.543330 55.850511 18.691717 -4.682715 4.475006 32.290949 -1.268889 2.222353 -1.040212 -0.112100 0.203690 0.215720 -0.087110 
-0.823370 17.832970 -0.205280 -12.406016 -57.894567 0.985987 -15.334263 13.995541 2.948040 28.339203 1.377417 -13.660332 -0.117845 6.915195 16.248738 -0.215198 5.392051 2.440793 0.015440 -0.008430 0.074530 17.996858 -10.418464 2.688494 -6.054003 4.400434 -12.178462 12.098799 -12.257482 38.710742 -1.087427 -6.704308 1.861112 -0.154580 0.206890 0.393670 -2.560509 -3.291157 -7.719079 -3.242272 3.496524 16.334105 2.783701 3.511281 16.131237 -2.097734 -4.414902 -17.928661 -15.263973 16.102579 50.690683 -9.012160 17.927620 -16.616110 8.772032 -23.156372 8.808668 -2.275000 -16.947650 0.057716 16.040965 -8.617768 -1.728305 -3.970492 2.631583 0.656390 0.042530 0.385060 0.029470 -3.351373 26.680190 11.680435 53.323178 18.871782 -3.352626 3.526503 30.511459 -1.128805 2.218851 -1.022433 -0.105620 0.224610 0.228290 -0.043410 
-0.855580 17.885020 -0.217780 -11.222753 -58.788104 -0.088638 -15.208583 14.077661 2.724184 26.118799 1.424124 -11.517359 1.038405 6.106270 14.273324 -0.240941 5.003047 2.643853 0.016580 0.002620 0.056630 18.047011 -10.690043 2.769451 -7.209492 4.309564 -11.571934 12.947624 -12.083160 36.994249 -1.043006 -6.575507 1.906510 -0.143450 0.236190 0.379430 -2.975186 -2.946781 -7.498992 -1.538302 2.881476 15.429766 -1.552720 3.980180 16.247956 -1.396639 -5.412095 -18.201233 -17.826453 17.590057 49.057822 -8.283280 17.697450 -16.269600 9.596263 -22.157845 9.237074 -2.215649 -15.793997 0.511225 15.403525 -7.519131 -1.500362 -3.985353 2.604679 0.638450 0.046790 0.368510 0.041120 -5.709090 26.286828 11.575706 50.419514 19.648664 -1.879414 2.620951 29.029192 -0.943444 2.215216 -0.997011 -0.109380 0.252470 0.230980 -0.023370 
-0.879760 17.936200 -0.230870 -9.793368 -59.612190 -1.327482 -15.141415 14.097069 2.604962 24.132502 1.464952 -9.754584 1.275422 5.632775 12.613093 -0.250026 4.757792 2.774493 0.039560 0.029870 0.061780 18.073203 -10.858524 2.805858 -8.339684 4.184340 -10.967343 13.799033 -11.897879 35.149693 -1.007235 -6.442843 1.940728 -0.128270 0.237640 0.387420 -3.300211 -2.710770 -7.312665 -0.071427 2.270136 14.590705 -5.317754 4.305044 16.370395 -0.511787 -6.396385 -18.407363 -20.579571 19.004524 47.606040 -8.539890 17.604460 -16.187010 10.114354 -21.025300 9.529574 -2.695616 -14.874591 0.858399 15.327051 -6.917941 -1.402105 -3.984550 2.622135 0.620950 0.046210 0.367840 0.049640 -8.083523 25.884328 11.393044 45.881611 20.618161 -0.496899 1.512670 28.144690 -0.701223 2.199538 -0.987732 -0.091780 0.250080 0.223080 -0.009270 
-0.883630 17.984090 -0.243620 -8.549225 -60.525791 -2.442812 -15.094646 14.064844 2.540864 22.553692 1.540406 -8.414264 0.741518 5.523047 11.873413 -0.257356 4.666899 2.837250 0.048020 0.041110 0.041900 18.095023 -10.978782 2.859103 -9.165216 4.215806 -10.628813 14.669619 -11.765385 33.616506 -0.979837 -6.358402 1.960618 -0.115520 0.254410 0.396020 -3.670768 -2.448348 -7.184155 1.882055 1.493583 14.344405 -9.153991 4.509788 16.233510 0.495338 -7.226598 -18.699702 -22.947857 20.452337 45.952820 -8.260370 17.580010 -15.750650 9.973250 -20.000121 9.826170 -2.995164 -13.224201 0.788993 15.820212 -7.374755 -1.461064 -3.975266 2.655994 0.610030 0.051810 0.358460 0.061890 -10.035640 25.420451 11.178865 39.530508 20.966395 -0.130545 0.191652 29.075667 -0.500345 2.139172 -0.985043 -0.086690 0.250860 0.228930 0.005500 
-0.866780 18.021510 -0.238550 -7.970959 -61.142934 -3.082589 -15.042024 14.020949 2.547685 21.381153 1.500678 -7.529563 0.509782 5.295270 10.742823 -0.297611 4.576770 2.886751 0.035050 0.015620 0.012530 18.124155 -11.128100 2.846458 -9.621404 4.136613 -10.323055 14.039323 -11.307502 32.931821 -0.919406 -6.238800 1.988497 -0.109900 0.273750 0.391200 -4.091553 -2.170693 -7.072605 4.816790 0.282536 14.828966 -12.898241 4.314775 15.879653 1.633120 -8.139213 -19.027154 -25.629627 21.845890 43.481073 -7.802810 17.350670 -15.007340 9.171271 -18.980797 10.043617 -3.416434 -11.137184 0.404060 16.956902 -9.099228 -1.743386 -3.951927 2.703446 0.608730 0.058100 0.323220 0.049460 -11.554843 24.833261 10.903892 31.278253 19.841052 -1.504940 -1.738332 32.665068 -0.447503 2.017905 -1.015703 -0.104110 0.248530 0.259590 0.002890 
-0.844800 18.051890 -0.233830 -6.299408 -61.772471 -4.462564 -15.007348 14.022491 2.526854 19.742943 1.382886 -7.305286 -0.048042 5.255184 10.853334 -0.289070 4.479564 2.946054 0.009040 -0.005500 -0.043460 18.132038 -11.279075 2.838655 -10.367057 4.061694 -10.678758 13.332185 -10.952318 32.658817 -0.849447 -6.164953 2.013799 -0.115240 0.322560 0.392630 -4.416869 -1.941191 -6.956458 7.075518 -0.890381 15.510469 -16.298896 3.963231 15.174171 2.821669 -8.937827 -19.064578 -27.572511 22.536973 40.409971 -7.351220 17.013030 -12.834740 8.599040 -17.300903 10.012730 -3.707190 -8.764096 -0.023344 17.394179 -12.293162 -2.027506 -3.917448 2.784283 0.551290 0.090670 0.275810 0.064120 -13.387559 23.559839 10.317197 22.204164 16.766562 -3.992006 -1.853788 39.096281 0.095416 1.874259 -1.163173 -0.099030 0.237500 0.273140 0.034580 
-0.807560 18.086000 -0.236720 -4.200696 -62.508063 -6.860736 -14.982353 14.108337 2.529236 18.107947 1.327373 -6.858440 -0.685542 5.375950 11.791383 -0.242075 4.425997 2.985674 0.019290 0.016730 -0.084750 18.110874 -11.455543 2.818007 -11.121163 3.889534 -10.627771 12.115269 -10.481241 32.621900 -0.812185 -6.059484 2.065928 -0.119380 0.344840 0.398480 -4.574314 -1.789475 -6.898871 8.374807 -1.839122 17.502973 -18.142803 3.578244 14.384301 4.125534 -9.672611 -19.336100 -30.035997 23.289303 38.401010 -6.650650 16.276680 -11.508780 7.379390 -15.924257 9.950121 -4.048995 -6.344264 -0.544371 17.946970 -15.055977 -2.344470 -3.846626 2.863404 0.519720 0.090270 0.271350 0.105110 -14.613627 22.733605 9.820882 11.174023 11.392292 -6.743196 -3.166527 44.994073 0.444264 1.762340 -1.383926 -0.068450 0.231990 0.256220 0.078750 
